<svg xmlns="http://www.w3.org/2000/svg" width="420" height="392" font-family="ui-sans-serif,system-ui">
<polygon points="210.0,164.0 234.7,182.0 225.3,211.0 194.7,211.0 185.3,182.0" fill="none" stroke="#8b949e" stroke-opacity="0.25" stroke-width="1"/><polygon points="210.0,138.0 259.5,173.9 240.6,232.1 179.4,232.1 160.5,173.9" fill="none" stroke="#8b949e" stroke-opacity="0.25" stroke-width="1"/><polygon points="210.0,112.0 284.2,165.9 255.8,253.1 164.2,253.1 135.8,165.9" fill="none" stroke="#8b949e" stroke-opacity="0.25" stroke-width="1"/><polygon points="210.0,86.0 308.9,157.9 271.1,274.1 148.9,274.1 111.1,157.9" fill="none" stroke="#8b949e" stroke-opacity="0.25" stroke-width="1"/><polygon points="210.0,60.0 333.6,149.8 286.4,295.2 133.6,295.2 86.4,149.8" fill="none" stroke="#8b949e" stroke-opacity="0.25" stroke-width="1"/><polygon points="210.0,60.0 333.6,149.8 255.8,253.1 133.6,295.2 86.4,149.8" fill="#9aa4b2" fill-opacity="0.35" stroke="#9aa4b2" stroke-width="2"/><polygon points="210.0,60.0 333.6,149.8 286.4,295.2 133.6,295.2 86.4,149.8" fill="#7c6bd6" fill-opacity="0.45" stroke="#7c6bd6" stroke-width="2"/><text x="210" y="37" text-anchor="middle" font-size="13" fill="#8b949e">语体一致</text><text x="358" y="142" text-anchor="middle" font-size="13" fill="#8b949e">价值观</text><text x="302" y="316" text-anchor="middle" font-size="13" fill="#8b949e">记忆回调</text><text x="118" y="316" text-anchor="middle" font-size="13" fill="#8b949e">情绪连续</text><text x="62" y="142" text-anchor="middle" font-size="13" fill="#8b949e">边界遵守</text>
<g font-size="13"><rect x="20" y="356" width="14" height="14" rx="3" fill="#7c6bd6"/><text x="40" y="368" fill="#8b949e">Harness</text>
<rect x="130" y="356" width="14" height="14" rx="3" fill="#9aa4b2"/><text x="150" y="368" fill="#8b949e">裸 system prompt</text></g>
</svg>